name C:\Users\r0593348\3dpredictsim\Results\batch_windlass\Pog_s1_tmt_bCst_d05_k1500_WL20_ig24_pas.mot
datacolumns 128
datarows 4
range 0.53747107 0.56971933
endheader
time	pelvis_tilt	pelvis_list	pelvis_rotation	pelvis_tx	pelvis_ty	pelvis_tz	hip_flexion_l	hip_adduction_l	hip_rotation_l	hip_flexion_r	hip_adduction_r	hip_rotation_r	knee_angle_l	knee_angle_r	ankle_angle_l	ankle_angle_r	subtalar_angle_l	subtalar_angle_r	tmt_angle_l	tmt_angle_r	mtp_angle_l	mtp_angle_r	lumbar_extension	lumbar_bending	lumbar_rotation	arm_flex_l	arm_add_l	arm_rot_l	arm_flex_r	arm_add_r	arm_rot_r	elbow_flex_l	elbow_flex_r	pro_sup_l	pro_sup_r	glut_med1_l/activation	glut_med2_l/activation	glut_med3_l/activation	glut_min1_l/activation	glut_min2_l/activation	glut_min3_l/activation	semimem_l/activation	semiten_l/activation	bifemlh_l/activation	bifemsh_l/activation	sar_l/activation	add_long_l/activation	add_brev_l/activation	add_mag1_l/activation	add_mag2_l/activation	add_mag3_l/activation	tfl_l/activation	pect_l/activation	grac_l/activation	glut_max1_l/activation	glut_max2_l/activation	glut_max3_l/activation	iliacus_l/activation	psoas_l/activation	quad_fem_l/activation	gem_l/activation	peri_l/activation	rect_fem_l/activation	vas_med_l/activation	vas_int_l/activation	vas_lat_l/activation	med_gas_l/activation	lat_gas_l/activation	soleus_l/activation	tib_post_l/activation	flex_dig_l/activation	flex_hal_l/activation	tib_ant_l/activation	per_brev_l/activation	per_long_l/activation	per_tert_l/activation	ext_dig_l/activation	ext_hal_l/activation	ercspn_l/activation	intobl_l/activation	extobl_l/activation	glut_med1_r/activation	glut_med2_r/activation	glut_med3_r/activation	glut_min1_r/activation	glut_min2_r/activation	glut_min3_r/activation	semimem_r/activation	semiten_r/activation	bifemlh_r/activation	bifemsh_r/activation	sar_r/activation	add_long_r/activation	add_brev_r/activation	add_mag1_r/activation	add_mag2_r/activation	add_mag3_r/activation	tfl_r/activation	pect_r/activation	grac_r/activation	glut_max1_r/activation	glut_max2_r/activation	glut_max3_r/activation	iliacus_r/activation	psoas_r/activation	quad_fem_r/activation	gem_r/activation	peri_r/activation	rect_fem_r/activation	vas_med_r/activation	vas_int_r/activation	vas_lat_r/activation	med_gas_r/activation	lat_gas_r/activation	soleus_r/activation	tib_post_r/activation	flex_dig_r/activation	flex_hal_r/activation	tib_ant_r/activation	per_brev_r/activation	per_long_r/activation	per_tert_r/activation	ext_dig_r/activation	ext_hal_r/activation	ercspn_r/activation	intobl_r/activation	extobl_r/activation	
          0.53747107	         -2.91254328	          1.64521899	         -6.08267800	          0.67183884	          0.85716864	          0.00236430	         31.60494563	          2.48922861	         -3.13037728	        -18.00345581	         -1.70446045	          8.36625274	        -19.36172573	        -10.66037630	         -0.35314728	         -1.61255097	         -1.15625001	         13.29112010	         -0.15843949	         -6.01500519	          0.73844274	         28.61846061	         -1.16942879	         -0.14108666	          1.82483202	        -10.67803127	        -13.69534468	          5.81639144	          4.72098059	        -13.48605467	         14.98084002	         18.74073373	         38.26479112	         86.51662706	         86.51662706	          0.05000444	          0.05000035	          0.05000299	          0.05000039	          0.05000040	          0.05000070	          0.05895784	          0.05895763	          0.21071084	          0.05000021	          0.05000047	          0.11397912	          0.18974033	          0.15511086	          0.17357321	          0.13307069	          0.05000056	          0.05715236	          0.05896222	          0.05000080	          0.13461153	          0.13007130	          0.05895747	          0.05895719	          0.23586259	          0.05000201	          0.05000027	          0.05000032	          0.16404013	          0.16649176	          0.13784668	          0.05895787	          0.05895788	          0.05895784	          0.05000000	          0.05000025	          0.05000074	          0.48953705	          0.25983633	          0.15160657	          0.40253031	          0.59891923	          0.05000007	          0.05000002	          0.09370815	          0.09880748	          0.22961263	          0.08742822	          0.05000005	          0.26505188	          0.17977857	          0.09022104	          0.05000146	          0.05000016	          0.05000012	          0.06680776	          0.08164427	          0.18955697	          0.12019876	          0.05000742	          0.05000252	          0.05000056	          0.28493886	          0.08585873	          0.05000071	          0.05000177	          0.05000120	          0.05000100	          0.30304712	          0.52278742	          0.05000014	          0.05000028	          0.05000006	          0.24268885	          0.10332907	          0.05000118	          0.07587299	          0.25993953	          0.33739365	          0.21365729	          0.18794456	          0.19313795	          0.25368678	          0.05000001	          0.11101394	          0.17597128	          0.05000006	          0.05000003	          0.05000006	          0.05000000	          0.05144375	          0.05000016	
          0.54822049	         -2.89583968	          1.76326175	         -6.33119341	          0.68857665	          0.85598358	          0.00215680	         30.94565111	          2.94318546	         -2.86707915	        -17.60584257	         -1.99976270	          8.14378095	        -19.32803248	        -12.97859688	         -0.71344628	         -2.71140033	         -1.81401584	         14.26625537	         -0.18334493	         -6.31258758	          0.87543721	         29.20252057	         -0.93520098	         -0.40904213	          1.89729892	        -11.72945353	        -13.69295419	          5.65515742	          4.39884313	        -13.52508138	         15.27745615	         18.64758242	         39.27554108	         86.51662706	         86.51662706	          0.05000002	          0.05000010	          0.08430900	          0.05000005	          0.05000007	          0.05000012	          0.05000003	          0.05000005	          0.17869623	          0.05000008	          0.05000077	          0.09666165	          0.16091199	          0.37582452	          0.28590346	          0.13601320	          0.05000011	          0.05000106	          0.05000393	          0.05895780	          0.15340733	          0.15211316	          0.05000003	          0.05000010	          0.49577692	          0.07978724	          0.06199256	          0.06952053	          0.26228106	          0.25672669	          0.21717003	          0.05000002	          0.05000003	          0.05000000	          0.05000012	          0.05895759	          0.05000021	          0.62358358	          0.22035772	          0.12857201	          0.51258706	          0.62116014	          0.24189786	          0.05000000	          0.07947046	          0.08379502	          0.19472611	          0.07414471	          0.05000049	          0.22478087	          0.15246367	          0.07651322	          0.05000218	          0.05000009	          0.05000015	          0.05665724	          0.06923961	          0.24464662	          0.27859578	          0.25612790	          0.08289992	          0.13066579	          0.24164734	          0.09408809	          0.05000057	          0.05000088	          0.05000061	          0.05000076	          0.25700321	          0.45633990	          0.05000026	          0.06835684	          0.05895813	          0.20581558	          0.08763008	          0.14055367	          0.10726730	          0.22044522	          0.28613124	          0.18119494	          0.15938893	          0.16379330	          0.21514253	          0.13563596	          0.09414695	          0.14923487	          0.05000017	          0.15873948	          0.05000146	          0.05662106	          0.06952057	          0.05425152	
          0.55896991	         -2.87498224	          1.88910874	         -6.55201870	          0.70547912	          0.85458835	          0.00197445	         30.11314315	          3.35075928	         -2.51617325	        -17.10711894	         -2.27857865	          7.91448871	        -19.73709121	        -15.49489868	         -0.83525677	         -3.78806043	         -2.53751372	         15.16010994	         -0.30686398	         -6.44146080	          0.98681164	         29.04567392	         -0.68943395	         -0.69086268	          1.95593882	        -12.74780570	        -13.70305853	          5.59587529	          4.01854298	        -13.57031229	         15.51737674	         18.50096633	         40.27395742	         86.51662706	         86.51662706	          0.33019348	          0.35090331	          0.44596183	          0.24266165	          0.05000062	          0.42159439	          0.08945728	          0.09492229	          0.16099387	          0.05000004	          0.05000013	          0.08197555	          0.24577610	          0.31872312	          0.24246479	          0.17445483	          0.05000011	          0.06952044	          0.12026260	          0.05000005	          0.20817513	          0.16526985	          0.05895771	          0.05000030	          0.42045032	          0.06766470	          0.24838167	          0.05895783	          0.27440294	          0.27809029	          0.23458077	          0.05895784	          0.05895785	          0.05895784	          0.05000002	          0.05000010	          0.05000060	          0.57614948	          0.18687735	          0.10903723	          0.43470647	          0.58671718	          0.20514482	          0.05149497	          0.06739603	          0.07106350	          0.20788340	          0.06287944	          0.05000020	          0.19062851	          0.12929891	          0.06488811	          0.05000184	          0.05000386	          0.05895771	          0.05000004	          0.05871969	          0.21616235	          0.34971640	          0.21721285	          0.07031518	          0.11081314	          0.28759611	          0.07980242	          0.05895794	          0.05566359	          0.05895774	          0.05895865	          0.21795506	          0.41569873	          0.05895791	          0.05797122	          0.05000026	          0.17454469	          0.07431590	          0.11919846	          0.09096949	          0.18695154	          0.24265746	          0.15366481	          0.13517195	          0.13890718	          0.18245457	          0.22936875	          0.13119752	          0.14468181	          0.31138688	          0.24365941	          0.13782569	          0.08863229	          0.05895786	          0.05000005	
          0.56971933	         -2.85329400	          2.01773893	         -6.74093094	          0.72226944	          0.85311329	          0.00178524	         29.14561308	          3.73716819	         -2.14998891	        -16.46875979	         -2.53533833	          7.68938733	        -20.10308424	        -18.24183107	         -0.70012140	         -4.72884541	         -3.29623117	         15.94429662	         -0.44840776	         -6.25336736	          1.15052001	         27.64911752	         -0.45643274	         -0.97607610	          2.00272126	        -13.66620631	        -13.71841555	          5.65551953	          3.63355854	        -13.61868515	         15.72407530	         18.25764877	         41.20836556	         86.51662706	         86.51662706	          0.42281473	          0.52250897	          0.59930144	          0.34992068	          0.41611307	          0.41775966	          0.07586550	          0.10919053	          0.13653303	          0.06952052	          0.05000030	          0.06952048	          0.20843375	          0.27029749	          0.20562576	          0.17834615	          0.05000011	          0.05895786	          0.10199046	          0.31226984	          0.26575439	          0.18244653	          0.05000002	          0.05000002	          0.35656859	          0.05895803	          0.21064378	          0.05000001	          0.34509385	          0.35435746	          0.29733573	          0.05000000	          0.05000001	          0.05000000	          0.13169614	          0.05895920	          0.05000041	          0.70087589	          0.15848386	          0.09247050	          0.39319285	          0.58948627	          0.40046359	          0.06821946	          0.06952051	          0.06026636	          0.17629839	          0.05332581	          0.05000005	          0.17111897	          0.10965376	          0.05502935	          0.05374590	          0.05000011	          0.05000018	          0.05000009	          0.05487148	          0.20135236	          0.29658175	          0.18421035	          0.05963189	          0.09397667	          0.32645985	          0.06767780	          0.05000033	          0.05000081	          0.05000069	          0.05000082	          0.18483977	          0.38279023	          0.05000009	          0.05000028	          0.05000016	          0.17205510	          0.06302463	          0.10108789	          0.07714794	          0.15854677	          0.20578893	          0.13031752	          0.11463458	          0.11780221	          0.15473322	          0.20118064	          0.11126430	          0.12269993	          0.26407588	          0.26623288	          0.11688500	          0.12487597	          0.05000001	          0.05000001	
